<svg xmlns="http://www.w3.org/2000/svg" width="500" height="500" style="width:100%;height:100%"><defs><clipPath id="a"><path d="M0 0h500v500H0z"/></clipPath></defs><g clip-path="url(#a)"><g display="block"><path stroke-linecap="round" stroke-linejoin="round" stroke="#1A1322" stroke-width="13.003" d="M193.154 192.798h113.692v107.701H193.154V192.798zm0 73.202h113.692m-90.489 17.333h.071m44.802 0h.071m22.365 0h.071m-44.943 0h.07" fill="none"/><path stroke-linecap="round" stroke-linejoin="round" stroke="#1A1322" stroke-width="13.003" d="M380.642 410.119H119.358V89.88h261.284v320.239zM345.036 90v320.119M154.964 89.953v320.119m64.929-250.574l-15.619-36.71-16.691 36.71m28.467-9.033h-24.36m69.244-27.677h-32.739m16.369 0v36.71m63.853 0v-36.71l-14.634 18.31-14.893-18.31v36.71m-71.212 177.169h84.644c8.021 0 14.524 6.503 14.524 14.524v10.31H193.154v-10.31c0-8.021 6.503-14.524 14.524-14.524z" fill="none"/></g><path stroke-linecap="round" stroke-linejoin="round" stroke="#1A1322" stroke-width="13.003" d="M147.587 410.119h-28.228V89.881h28.228" fill="none" display="block"/></g></svg>