<?xml version="1.0" encoding="utf-8"?>
<!-- Generator: Adobe Illustrator 24.1.2, SVG Export Plug-In . SVG Version: 6.00 Build 0)  -->
<svg version="1.1" id="Warstwa_3" xmlns="http://www.w3.org/2000/svg" xmlns:xlink="http://www.w3.org/1999/xlink" x="0px" y="0px"
	 viewBox="0 0 430 430" style="enable-background:new 0 0 430 430;" xml:space="preserve">
<style type="text/css">
	.st0{fill:#08A789;}
	.st1{fill:#121331;}
	.st2{fill:none;stroke:#08A789;stroke-width:12;stroke-linecap:round;stroke-linejoin:round;stroke-miterlimit:10;}
	.st3{fill:none;stroke:#121331;stroke-width:12;stroke-linecap:round;stroke-linejoin:round;stroke-miterlimit:10;}
	.st4{fill:#08A88A;}
	.st5{fill:#FFFFFF;stroke:#08A88A;stroke-width:12;stroke-linecap:round;stroke-linejoin:round;stroke-miterlimit:10;}
</style>
<g>
	<path class="st1" d="M345.64,48.88H84.36c-3.31,0-6,2.69-6,6v320.24c0,3.31,2.69,6,6,6h261.28c3.31,0,6-2.69,6-6V54.88
		C351.64,51.57,348.96,48.88,345.64,48.88z M304.04,60.88v308.24H125.96V60.88H304.04z M90.36,60.88h23.61v308.24H90.36V60.88z
		 M339.64,369.12h-23.61V60.88h23.61V369.12z"/>
	<path class="st4" d="M271.85,151.8H158.15c-3.31,0-6,2.69-6,6v107.7c0,3.31,2.69,6,6,6h113.69c3.31,0,6-2.69,6-6V157.8
		C277.85,154.48,275.16,151.8,271.85,151.8z M265.85,163.8V225H164.15v-61.2H265.85z M164.15,259.5V237h101.69v22.5H164.15z"/>
	<path class="st4" d="M181.43,254.33c-3.31,0-6.04-2.69-6.04-6s2.65-6,5.96-6h0.07c3.31,0,6,2.69,6,6S184.74,254.33,181.43,254.33z"
		/>
	<g>
		<path class="st1" d="M190.41,122.15l-3.83-8.99c-0.01-0.02-0.02-0.04-0.02-0.05L174.8,85.44c-0.93-2.19-3.07-3.62-5.45-3.65
			c-0.02,0-0.05,0-0.07,0c-2.35,0-4.49,1.37-5.46,3.52l-16.69,36.71c-1.37,3.02-0.04,6.57,2.98,7.95c3.01,1.37,6.57,0.04,7.95-2.98
			l2.51-5.52h16.53l2.29,5.38c0.97,2.28,3.19,3.65,5.52,3.65c0.78,0,1.58-0.15,2.35-0.48C190.29,128.72,191.71,125.2,190.41,122.15z
			 M166.01,109.47l3.08-6.78l2.88,6.78H166.01z"/>
		<path class="st1" d="M225.93,81.79h-32.74c-3.31,0-6,2.69-6,6s2.69,6,6,6h10.37v30.71c0,3.31,2.69,6,6,6s6-2.69,6-6V93.79h10.37
			c3.31,0,6-2.69,6-6S229.25,81.79,225.93,81.79z"/>
		<path class="st1" d="M273.42,130.5c-3.31,0-6-2.69-6-6v-19.59l-3.95,4.94c-1.13,1.42-2.85,2.25-4.66,2.25c-0.01,0-0.02,0-0.03,0
			c-1.81,0-3.52-0.81-4.65-2.21l-4.24-5.21v19.82c0,3.31-2.69,6-6,6s-6-2.69-6-6V87.79c0-2.54,1.6-4.8,3.99-5.65
			c2.39-0.85,5.06-0.1,6.66,1.87l10.2,12.54l9.99-12.5c1.59-1.99,4.27-2.76,6.67-1.92c2.4,0.84,4.02,3.11,4.02,5.66v36.71
			C279.42,127.81,276.73,130.5,273.42,130.5z"/>
	</g>
	<path class="st4" d="M226.3,254.33c-3.31,0-6.04-2.69-6.04-6s2.65-6,5.96-6h0.07c3.31,0,6,2.69,6,6S229.61,254.33,226.3,254.33z"/>
	<path class="st4" d="M248.74,254.33c-3.31,0-6.04-2.69-6.04-6s2.65-6,5.96-6h0.07c3.31,0,6,2.69,6,6S252.05,254.33,248.74,254.33z"
		/>
	<path class="st4" d="M203.86,254.33c-3.31,0-6.04-2.69-6.04-6s2.65-6,5.96-6h0.07c3.31,0,6,2.69,6,6S207.18,254.33,203.86,254.33z"
		/>
	<path class="st1" d="M271.85,332.5H158.15c-3.31,0-6-2.69-6-6v-10.31c0-11.32,9.21-20.52,20.52-20.52h84.64
		c11.32,0,20.52,9.21,20.52,20.52v10.31C277.85,329.81,275.16,332.5,271.85,332.5z M164.15,320.5h101.69v-4.31
		c0-4.7-3.82-8.52-8.52-8.52h-84.64c-4.7,0-8.52,3.82-8.52,8.52V320.5z"/>
</g>
</svg>
