<svg xmlns="http://www.w3.org/2000/svg" width="500" height="500" style="width:100%;height:100%"><defs><clipPath id="b"><path d="M0 0h500v500H0z"/></clipPath><filter id="a" filterUnits="objectBoundingBox" x="0%" y="0%" width="100%" height="100%"><feComponentTransfer in="SourceGraphic"><feFuncA type="table" tableValues="1.0 0.0"/></feComponentTransfer></filter><mask id="c"><g filter="url(#a)"><path fill="red" d="M73.353 93.468h-285.884c-9.448 0-17.177-7.729-17.177-17.177v-179.137c0-9.448 7.729-17.178 17.177-17.178H73.353c9.448 0 17.177 7.73 17.177 17.178V76.291c0 9.448-7.729 17.177-17.177 17.177z" transform="translate(319.589 263.278)" display="block"/></g></mask></defs><g display="block" clip-path="url(#b)"><path stroke-linecap="round" stroke-linejoin="round" stroke="#121331" stroke-width="12.04" d="M392.942 356.746H107.058c-9.448 0-17.177-7.729-17.177-17.177V160.432c0-9.448 7.729-17.178 17.177-17.178h285.884c9.448 0 17.177 7.73 17.177 17.178v179.137c0 9.448-7.729 17.177-17.177 17.177z" fill="none"/><path stroke-linecap="round" stroke-linejoin="round" stroke="#1A1322" stroke-width="12.04" d="M181.635 183.293l-25.753 60.133-25.752-60.133m76.617 60.32v-60.221m32.379-.109h20.465c9.816 0 17.857 7.277 17.857 16.172 0 4.438-2.015 8.479-5.251 11.415-3.236 2.926-7.703 4.748-12.606 4.748h-20.465m-.002-32.334v60.329M248 316.716h63.5m27.5 0h31.09" fill="none"/></g></svg>