<?xml version="1.0" encoding="utf-8"?>
<!-- Generator: Adobe Illustrator 24.1.2, SVG Export Plug-In . SVG Version: 6.00 Build 0)  -->
<svg version="1.1" id="Warstwa_3" xmlns="http://www.w3.org/2000/svg" xmlns:xlink="http://www.w3.org/1999/xlink" x="0px" y="0px"
	 viewBox="0 0 430 430" style="enable-background:new 0 0 430 430;" xml:space="preserve">
<style type="text/css">
	.st0{fill:#08A88A;}
	.st1{fill:#121331;}
	.st2{fill:#08A88A;fill-opacity:0;}
	.st3{fill:none;}
</style>
<g>
	<path class="st1" d="M151.83,136.05c-2.37,0-4.65-1.35-5.71-3.64l-37.5-80.5c-1.47-3.15-0.1-6.9,3.05-8.37
		c3.15-1.47,6.9-0.1,8.37,3.05l37.5,80.5c1.47,3.15,0.1,6.9-3.05,8.37C153.63,135.86,152.72,136.05,151.83,136.05z"/>
	<path class="st1" d="M163.88,76.05c-19.55,0-49.64-19.33-53-21.53c-2.91-1.91-3.73-5.81-1.82-8.72c1.9-2.91,5.81-3.73,8.72-1.82
		c8.28,5.42,32.71,19.47,46.1,19.47c7.01,0,13.03-4.05,20-8.74c8.02-5.4,17.12-11.51,29.16-11.51c3.48,0,6.3,2.82,6.3,6.3
		s-2.82,6.3-6.3,6.3c-8.2,0-14.96,4.55-22.13,9.37C182.96,70.52,174.73,76.05,163.88,76.05z"/>
	<path class="st1" d="M262.59,76.05c-12.93,0-21.7-6.15-29.44-11.57c-6.65-4.66-12.39-8.68-20.11-8.68c-3.48,0-6.3-2.82-6.3-6.3
		s2.82-6.3,6.3-6.3c11.7,0,20.01,5.82,27.34,10.96c7.11,4.98,13.25,9.29,22.21,9.29c19.01,0,46.93-18.73,47.21-18.92
		c2.88-1.95,6.8-1.19,8.75,1.69c1.95,2.88,1.2,6.8-1.68,8.75C315.59,55.83,285.47,76.05,262.59,76.05z"/>
	<path class="st1" d="M276.83,137.05c-0.87,0-1.74-0.18-2.58-0.56c-3.17-1.43-4.58-5.16-3.16-8.33l36.5-81
		c1.43-3.17,5.16-4.59,8.33-3.16c3.17,1.43,4.58,5.16,3.16,8.33l-36.5,81C281.52,135.67,279.23,137.05,276.83,137.05z"/>
	<path class="st1" d="M214.83,387.05c-31.3,0-58.83-4.8-81.84-14.26c-22.47-9.24-39.68-22.84-49.79-39.33
		c-14.39-23.5-14.21-51.18,0.52-80.07l63.5-124.5c1.58-3.1,5.38-4.33,8.47-2.75c3.1,1.58,4.33,5.38,2.75,8.47l-63.5,124.5
		c-12.63,24.77-12.98,48.2-1,67.76c18.25,29.79,63.44,47.58,120.89,47.58c57.51,0,102.8-17.82,121.14-47.66
		c12.02-19.55,11.75-42.96-0.76-67.69l-63-124.5c-1.57-3.1-0.33-6.9,2.78-8.47c3.1-1.57,6.9-0.33,8.47,2.78l63,124.5
		c14.6,28.85,14.69,56.5,0.25,79.98c-10.15,16.51-27.41,30.13-49.92,39.38C273.72,382.24,246.15,387.05,214.83,387.05z"/>
	<path class="st0" d="M288.83,223.05c-1.61,0-3.22-0.61-4.45-1.85c-25.69-25.69-18.3-64.86-13.28-82.15H150.33
		c-3.48,0-6.3-2.82-6.3-6.3s2.82-6.3,6.3-6.3h129.43c0.87,0,1.75,0.16,2.6,0.53l0,0c0,0,0,0,0.01,0c0.04,0.02,0.08,0.04,0.12,0.05
		c12.89,5.95,35.09,25.68,26.95,57.76c-0.86,3.37-4.28,5.42-7.66,4.56c-3.37-0.85-5.41-4.28-4.56-7.66
		c5.32-21-6.21-33.59-13.91-39.39c-4.26,14.82-10.96,49.06,9.97,69.99c2.46,2.46,2.46,6.45,0,8.91
		C292.05,222.44,290.44,223.05,288.83,223.05z"/>
	<g>
		<path class="st2" d="M250.18,236.36h-11.48l16.58,30.86v19.11h10.53v-19.45l16.58-30.52h-11.42l-10.42,20.58L250.18,236.36z
			 M235.2,236.36h-9.54v23.65c0,2.69,0.17,7.28,0.51,13.77h-0.24l-21.7-37.43h-13.36v49.97h9.47v-23.52c0-2.85-0.22-7.61-0.65-14.29
			H200l21.74,37.8h13.47V236.36z M175.86,245.45c1.89,0.66,3.77,1.43,5.64,2.32l3.42-8.61c-4.9-2.35-9.77-3.52-14.63-3.52
			c-4.76,0-8.92,1.04-12.46,3.13c-3.54,2.08-6.26,5.08-8.15,8.99c-1.89,3.91-2.84,8.46-2.84,13.65c0,8.25,1.93,14.58,5.78,18.99
			c3.85,4.41,9.41,6.61,16.68,6.61c5.06,0,9.64-0.85,13.74-2.56v-8.89c-4.99,1.76-9.24,2.63-12.75,2.63
			c-8.36,0-12.54-5.57-12.54-16.71c0-5.36,1.09-9.53,3.28-12.53s5.28-4.49,9.26-4.49C172.12,244.46,173.97,244.79,175.86,245.45z"/>
		<path class="st0" d="M169.3,288.41c-7.66,0-13.62-2.39-17.73-7.09c-4.06-4.65-6.12-11.35-6.12-19.91c0-5.38,1-10.18,2.98-14.26
			c2.01-4.14,4.93-7.37,8.7-9.59c3.75-2.2,8.18-3.32,13.17-3.32c5.04,0,10.16,1.23,15.23,3.66c0.66,0.32,0.97,1.1,0.7,1.78
			l-3.42,8.61c-0.14,0.36-0.43,0.65-0.79,0.79c-0.36,0.14-0.76,0.13-1.11-0.04c-1.81-0.86-3.66-1.62-5.5-2.27l0,0
			c-1.73-0.61-3.45-0.91-5.11-0.91c-3.55,0-6.21,1.28-8.13,3.92c-2,2.74-3.01,6.67-3.01,11.7c0,10.3,3.65,15.31,11.14,15.31
			c3.34,0,7.47-0.86,12.28-2.55c0.43-0.15,0.9-0.08,1.27,0.18c0.37,0.26,0.59,0.69,0.59,1.14v8.89c0,0.56-0.34,1.07-0.86,1.29
			C179.33,287.52,174.52,288.41,169.3,288.41z M170.29,237.04c-4.49,0-8.44,0.99-11.75,2.93c-3.28,1.93-5.84,4.76-7.6,8.39
			c-1.79,3.7-2.7,8.09-2.7,13.04c0,7.86,1.83,13.94,5.43,18.07c3.56,4.07,8.81,6.13,15.63,6.13c4.5,0,8.64-0.71,12.34-2.11v-5.99
			c-4.33,1.38-8.14,2.08-11.35,2.08c-6.36,0-13.94-3.14-13.94-18.11c0-5.63,1.19-10.13,3.55-13.35c2.46-3.36,5.95-5.07,10.39-5.07
			c1.97,0,4,0.36,6.03,1.07c1.48,0.52,2.96,1.1,4.42,1.76l2.38-6.01C178.83,238,174.52,237.04,170.29,237.04z M265.8,287.73h-10.53
			c-0.77,0-1.4-0.63-1.4-1.4v-18.75l-16.41-30.55c-0.23-0.43-0.22-0.96,0.03-1.38c0.25-0.42,0.71-0.68,1.2-0.68h11.48
			c0.53,0,1.01,0.3,1.25,0.77l9.11,18.1l9.17-18.1c0.24-0.47,0.72-0.77,1.25-0.77h11.42c0.49,0,0.95,0.26,1.2,0.68
			s0.26,0.95,0.03,1.38l-16.41,30.21v19.09C267.2,287.1,266.57,287.73,265.8,287.73z M256.67,284.93h7.73v-18.05
			c0-0.23,0.06-0.46,0.17-0.67l15.45-28.45h-8.2l-10.04,19.81c-0.24,0.47-0.72,0.77-1.25,0.77c0,0,0,0,0,0
			c-0.53,0-1.01-0.3-1.25-0.77l-9.97-19.81h-8.28l15.47,28.8c0.11,0.2,0.17,0.43,0.17,0.66V284.93z M235.2,287.73h-13.47
			c-0.5,0-0.96-0.27-1.21-0.7l-19.11-33.24c0.22,3.97,0.33,7,0.33,9.02v23.52c0,0.77-0.63,1.4-1.4,1.4h-9.47
			c-0.77,0-1.4-0.63-1.4-1.4v-49.97c0-0.77,0.63-1.4,1.4-1.4h13.36c0.5,0,0.96,0.27,1.21,0.7l19.07,32.89
			c-0.17-3.78-0.25-6.64-0.25-8.54v-23.65c0-0.77,0.63-1.4,1.4-1.4h9.54c0.77,0,1.4,0.63,1.4,1.4v49.97
			C236.6,287.1,235.98,287.73,235.2,287.73z M222.55,284.93h11.26v-47.17h-6.74v22.25c0,2.65,0.17,7.26,0.51,13.7
			c0.02,0.38-0.12,0.76-0.38,1.04c-0.26,0.28-0.63,0.44-1.02,0.44h-0.24c-0.5,0-0.96-0.27-1.21-0.7l-21.3-36.73h-11.16v47.17h6.67
			v-22.12c0-2.79-0.22-7.57-0.65-14.2c-0.02-0.39,0.11-0.77,0.38-1.05c0.26-0.28,0.63-0.44,1.02-0.44H200c0.5,0,0.96,0.27,1.21,0.7
			L222.55,284.93z"/>
	</g>
	<path class="st0" d="M250.18,236.36h-11.48l16.58,30.86v19.11h10.53v-19.45l16.58-30.52h-11.42l-10.42,20.58L250.18,236.36z"/>
	<path class="st0" d="M235.2,236.36h-9.54v23.65c0,2.69,0.17,7.28,0.51,13.77h-0.24l-21.7-37.43h-13.36v49.97h9.47v-23.52
		c0-2.85-0.22-7.61-0.65-14.29H200l21.74,37.8h13.47V236.36z"/>
	<path class="st0" d="M175.86,245.45c1.89,0.66,3.77,1.43,5.64,2.32l3.42-8.61c-4.9-2.35-9.77-3.52-14.63-3.52
		c-4.76,0-8.92,1.04-12.46,3.13c-3.54,2.08-6.26,5.08-8.15,8.99c-1.89,3.91-2.84,8.46-2.84,13.65c0,8.25,1.93,14.58,5.78,18.99
		c3.85,4.41,9.41,6.61,16.68,6.61c5.06,0,9.64-0.85,13.74-2.56v-8.89c-4.99,1.76-9.24,2.63-12.75,2.63
		c-8.36,0-12.54-5.57-12.54-16.71c0-5.36,1.09-9.53,3.28-12.53s5.28-4.49,9.26-4.49C172.12,244.46,173.97,244.79,175.86,245.45z"/>
</g>
</svg>
